name rise49.25peak52.1432fall72.8391.mot
datacolumns 19
datarows 21
range 6.82830100000000 6.86164200000000
endheader
time	ground_force1_vx	ground_force1_vy	ground_force1_vz	ground_force1_px	ground_force1_py	ground_force1_pz	ground_force2_vx	ground_force2_vy	ground_force2_vz	ground_force2_px	ground_force2_py	ground_force2_pz	ground_torque1_x	ground_torque1_y	ground_torque1_z	ground_torque2_x	ground_torque2_y	ground_torque2_z	
6.82830100000000	-48.45167100000000	799.17157099999997	53.84437300000000	0.11794400000000	0.00000000000000	0.09982100000000	-1.54240300000000	38.03913900000000	5.46242900000000	0.32937700000000	0.00000000000000	-0.08971500000000	0.00000000000000	22.05748100000000	0.00000000000000	0.00000000000000	3.67330300000000	0.00000000000000	
6.82997400000000	-48.83233100000000	797.97752400000002	53.75690900000000	0.11733900000000	0.00000000000000	0.09975300000000	-1.65090900000000	44.23221600000000	6.16571300000000	0.33562400000000	0.00000000000000	-0.08997500000000	0.00000000000000	21.99341300000000	0.00000000000000	0.00000000000000	4.21099900000000	0.00000000000000	
6.83164000000000	-49.22521800000000	796.69130299999995	53.65311400000000	0.11675000000000	0.00000000000000	0.09968100000000	-1.71468300000000	50.41038800000000	6.81275900000000	0.34141200000000	0.00000000000000	-0.09022200000000	0.00000000000000	21.92939700000000	0.00000000000000	0.00000000000000	4.72374100000000	0.00000000000000	
6.83330400000000	-49.63084100000000	795.31093799999996	53.53258000000000	0.11617500000000	0.00000000000000	0.09960500000000	-1.72749400000000	56.48662900000000	7.38896800000000	0.34678600000000	0.00000000000000	-0.09045700000000	0.00000000000000	21.86552100000000	0.00000000000000	0.00000000000000	5.20032200000000	0.00000000000000	
6.83497700000000	-50.04967400000000	793.83440499999995	53.39491400000000	0.11561400000000	0.00000000000000	0.09952500000000	-1.68497200000000	62.39743100000000	7.88439100000000	0.35178300000000	0.00000000000000	-0.09068300000000	0.00000000000000	21.80186600000000	0.00000000000000	0.00000000000000	5.63248700000000	0.00000000000000	
6.83663700000000	-50.48214500000000	792.25962400000003	53.23974400000000	0.11506700000000	0.00000000000000	0.09944100000000	-1.58460400000000	68.10445900000001	8.29382400000000	0.35643600000000	0.00000000000000	-0.09090300000000	0.00000000000000	21.73850000000000	0.00000000000000	0.00000000000000	6.01514500000000	0.00000000000000	
6.83830300000000	-50.92863600000000	790.58446200000003	53.06671300000000	0.11453300000000	0.00000000000000	0.09935300000000	-1.42559200000000	73.59386700000000	8.61649500000000	0.36077200000000	0.00000000000000	-0.09111800000000	0.00000000000000	21.67548100000000	0.00000000000000	0.00000000000000	6.34628300000000	0.00000000000000	
6.83997600000000	-51.38947900000000	788.80672900000002	52.87548800000000	0.11401100000000	0.00000000000000	0.09926100000000	-1.20859400000000	78.87371300000000	8.85543600000000	0.36481300000000	0.00000000000000	-0.09133000000000	0.00000000000000	21.61285400000000	0.00000000000000	0.00000000000000	6.62663800000000	0.00000000000000	
6.84163800000000	-51.86494700000000	786.92417999999998	52.66575400000000	0.11350000000000	0.00000000000000	0.09916500000000	-0.93539700000000	83.97001700000000	9.01665900000000	0.36858200000000	0.00000000000000	-0.09154000000000	0.00000000000000	21.55065000000000	0.00000000000000	0.00000000000000	6.85919200000000	0.00000000000000	
6.84330500000000	-52.35525900000000	784.93451800000003	52.43722400000000	0.11300000000000	0.00000000000000	0.09906500000000	-0.60856700000000	88.92203100000000	9.10822200000000	0.37209500000000	0.00000000000000	-0.09174900000000	0.00000000000000	21.48889200000000	0.00000000000000	0.00000000000000	7.04857400000000	0.00000000000000	
6.84497500000000	-52.86056500000000	782.83539299999995	52.18962900000000	0.11250900000000	0.00000000000000	0.09896200000000	-0.23109100000000	93.77724600000001	9.13929700000000	0.37536800000000	0.00000000000000	-0.09195800000000	0.00000000000000	21.42758600000000	0.00000000000000	0.00000000000000	7.20042300000000	0.00000000000000	
6.84664100000000	-53.38095300000000	780.62440500000002	51.92273300000000	0.11202600000000	0.00000000000000	0.09885400000000	0.19393700000000	98.58658400000000	9.11930300000000	0.37841700000000	0.00000000000000	-0.09216800000000	0.00000000000000	21.36672900000000	0.00000000000000	0.00000000000000	7.32077300000000	0.00000000000000	
6.84830700000000	-53.91643600000000	778.29910900000004	51.63632000000000	0.11155100000000	0.00000000000000	0.09874200000000	0.66358300000000	103.40013500000001	9.05717100000000	0.38125400000000	0.00000000000000	-0.09237800000000	0.00000000000000	21.30630200000000	0.00000000000000	0.00000000000000	7.41552200000000	0.00000000000000	
6.84997000000000	-54.46695200000000	775.85701800000004	51.33020900000000	0.11108200000000	0.00000000000000	0.09862700000000	1.17527900000000	108.26367100000000	8.96076900000000	0.38388900000000	0.00000000000000	-0.09259000000000	0.00000000000000	21.24627700000000	0.00000000000000	0.00000000000000	7.48999000000000	0.00000000000000	
6.85163500000000	-55.03236300000000	773.29560500000002	51.00424500000000	0.11061800000000	0.00000000000000	0.09850700000000	1.72695000000000	113.21607600000000	8.83651500000000	0.38633500000000	0.00000000000000	-0.09280400000000	0.00000000000000	21.18660900000000	0.00000000000000	0.00000000000000	7.54861100000000	0.00000000000000	
6.85331000000000	-55.61244600000000	770.61231099999998	50.65830300000000	0.11015800000000	0.00000000000000	0.09838400000000	2.31708300000000	118.28772700000000	8.68915700000000	0.38860000000000	0.00000000000000	-0.09302000000000	0.00000000000000	21.12724300000000	0.00000000000000	0.00000000000000	7.59473400000000	0.00000000000000	
6.85497600000000	-56.20689500000000	767.80454799999995	50.29229400000000	0.10970100000000	0.00000000000000	0.09825800000000	2.94473100000000	123.49977400000000	8.52173100000000	0.39069300000000	0.00000000000000	-0.09323800000000	0.00000000000000	21.06811200000000	0.00000000000000	0.00000000000000	7.63056100000000	0.00000000000000	
6.85664200000000	-56.81531300000000	764.86970899999994	49.90615800000000	0.10924500000000	0.00000000000000	0.09812800000000	3.60947200000000	128.86421600000000	8.33563800000000	0.39262200000000	0.00000000000000	-0.09345900000000	0.00000000000000	21.00913500000000	0.00000000000000	0.00000000000000	7.65716600000000	0.00000000000000	
6.85830500000000	-57.43721400000000	761.80516699999998	49.49987200000000	0.10878900000000	0.00000000000000	0.09799400000000	4.31132000000000	134.38461300000000	8.13084700000000	0.39439600000000	0.00000000000000	-0.09368200000000	0.00000000000000	20.95022000000000	0.00000000000000	0.00000000000000	7.67461300000000	0.00000000000000	
6.85998400000000	-58.07201800000000	758.60829000000001	49.07344600000000	0.10833200000000	0.00000000000000	0.09785700000000	5.05062400000000	140.05727300000001	7.90615600000000	0.39602000000000	0.00000000000000	-0.09390700000000	0.00000000000000	20.89126100000000	0.00000000000000	0.00000000000000	7.68212800000000	0.00000000000000	
6.86164200000000	-58.71904700000000	755.27644399999997	48.62692900000000	0.10787200000000	0.00000000000000	0.09771700000000	5.82794800000000	145.87273600000000	7.65949800000000	0.39750200000000	0.00000000000000	-0.09413500000000	0.00000000000000	20.83214300000000	0.00000000000000	0.00000000000000	7.67829500000000	0.00000000000000	
